<?xml version="1.0" encoding="utf-8"?>
<!-- Generator: Adobe Illustrator 23.1.0, SVG Export Plug-In . SVG Version: 6.00 Build 0)  -->
<svg version="1.1" xmlns="http://www.w3.org/2000/svg" xmlns:xlink="http://www.w3.org/1999/xlink" x="0px" y="0px"
	 viewBox="0 0 493.5 493.5" style="enable-background:new 0 0 493.5 493.5;" xml:space="preserve">
<style type="text/css">
	.st0{display:none;}
	.st1{fill:#343A6E;}
	.st2{fill:#484B7F;}
	.st3{fill:none;}
	.st4{fill:#F2AE5A;}
	.st5{fill:#F9DF73;}
</style>
<g id="Calque_2" class="st0">
</g>
<g id="Calque_1">
	<g>
		<path class="st1" d="M374.3,44.6c2.1,1.6,4.1,3.3,6.1,5l4.5-7.4c-3.5-2.4-7.1-4.6-10.7-6.8c0.1,0.8,0.2,1.6,0.2,2.5V44.6z"/>
		<path class="st1" d="M342.5,19.3C314.6,7.5,284.1,0.7,252,0.1c29.1,0.7,56.6,7.6,81.5,19.2H342.5z"/>
		<path class="st1" d="M155.8,433.4h64.4v-25.7C122.7,395,46.9,313.9,42.3,214.2c-2.8-3.8-5.6-7.7-8.2-11.9
			c-7.6-12.1-14-25.6-19.2-40.1C5.3,188.5,0,217,0,246.8c0,91,49.3,170.5,122.6,213.3C125.9,444.8,139.5,433.4,155.8,433.4z"/>
		<path class="st1" d="M241.5,0.1c-32,0.7-62.5,7.4-90.5,19.2h9C184.8,7.6,212.4,0.8,241.5,0.1z"/>
		<path class="st1" d="M451.2,214.2c-4.6,99.7-80.5,180.8-177.8,193.4v25.7h64.4c16.2,0,29.8,11.4,33.2,26.6
			c73.3-42.8,122.6-122.3,122.6-213.3c0-29.7-5.3-58.2-14.9-84.6c-5.1,14.5-11.6,28-19.2,40.1C456.8,206.5,454.1,210.5,451.2,214.2z
			"/>
		<path class="st1" d="M119.3,44.6v-6.7c0-0.8,0.1-1.7,0.2-2.5c-3.6,2.2-7.2,4.5-10.7,6.8l4.5,7.4C115.2,47.9,117.2,46.2,119.3,44.6
			z"/>
		<path class="st2" d="M171.3,19.3h162.3C308.7,7.6,281.1,0.8,252,0.1c-1.8,0-3.5-0.1-5.3-0.1s-3.5,0-5.3,0.1
			c-29.1,0.7-56.6,7.6-81.5,19.2H171.3z"/>
		<path class="st2" d="M114.1,51.1h5.2v-6.6c-2.1,1.6-4.1,3.3-6.1,5L114.1,51.1z"/>
		<path class="st2" d="M220.1,407.7v-2.9c-11.4-8.3-18.9-21.7-18.9-36.9c0-11.7,4.4-22.3,11.7-30.4c-32.2-11.9-59.3-40.4-76-78.3
			h-15.1c-29.7,0-57.6-15.9-79.5-45C46.9,313.9,122.7,395,220.1,407.7z"/>
		<path class="st2" d="M374.3,51.1h5.2l0.9-1.5c-2-1.7-4-3.4-6.1-5V51.1z"/>
		<path class="st2" d="M451.2,214.2c-22,29.1-49.8,45-79.5,45h-15.1c-16.6,37.8-43.7,66.3-76,78.3c7.2,8.1,11.7,18.7,11.7,30.4
			c0,15.2-7.4,28.6-18.9,36.9v2.9C370.8,395,446.6,313.9,451.2,214.2z"/>
		<path class="st3" d="M402.7,55.6c25.3,20.6,46.4,46.2,61.8,75.2c4.3-18.6,6.6-38.5,6.6-59.1V41.5h-60L402.7,55.6z"/>
		<path class="st1" d="M402.7,55.6l-6,9.9c27.5,29.6,46.3,67.4,52.5,109.2c6.5-13.4,11.6-28.2,15.3-44
			C449.1,101.7,428,76.2,402.7,55.6z"/>
		<path class="st2" d="M392.2,73.1h-17.9v98.8c0,23.1-3.4,45.2-9.6,65.3h7c25.5,0,49.9-16.5,68.7-46.5c3.2-5.1,6.1-10.4,8.9-16
			c-6.2-41.9-25-79.6-52.5-109.2L392.2,73.1z"/>
		<path class="st3" d="M90.8,55.6l-8.4-14h-60v30.1c0,20.5,2.3,40.5,6.6,59.1C44.4,101.7,65.5,76.2,90.8,55.6z"/>
		<path class="st1" d="M90.8,55.6c-25.3,20.6-46.4,46.2-61.8,75.2c3.7,15.8,8.8,30.6,15.3,44c6.2-41.9,25-79.6,52.5-109.2L90.8,55.6
			z"/>
		<path class="st2" d="M119.3,73.1h-17.9l-4.6-7.7c-27.5,29.6-46.3,67.4-52.5,109.2c2.7,5.6,5.7,11,8.9,16
			c18.8,30,43.2,46.5,68.7,46.5h7c-6.2-20.1-9.6-42.2-9.6-65.3V73.1z"/>
		<path class="st4" d="M239.8,437.5c0-10,0-11,0-26c-1.4-0.8-2.7-1.6-4-2.4c-32-21.1-20.2-64.7-5.7-70
			c-85.7-78.1-66.7-212-58.8-319.8H160h-9h-13.2c-9.4,0-17.2,7-18.4,16.1c-0.1,0.8-0.2,1.6-0.2,2.5v6.7v6.6h-5.2l-0.9-1.5l-4.5-7.4
			L95.1,19.5H0v52.1c0,32.1,5.2,63.1,14.9,90.5c5.1,14.5,11.6,28,19.2,40.1c2.6,4.2,5.4,8.2,8.2,11.9c22,29.1,49.8,45,79.5,45h15.1
			c16.6,37.8,43.7,66.3,76,78.3c-7.2,8.1-11.7,18.7-11.7,30.4c0,15.2,7.4,28.6,18.9,36.9v2.9v25.7h-64.4
			c-16.2,0-29.8,11.4-33.2,26.6c7.8,4.6,15.9,8.7,24.2,12.4C147,434,197.1,437.5,239.8,437.5z M121.8,237.2
			c-25.5,0-49.9-16.5-68.7-46.5c-3.2-5.1-6.1-10.4-8.9-16c-6.5-13.4-11.6-28.2-15.3-44c-4.3-18.6-6.6-38.5-6.6-59.1V41.5h60l8.4,14
			l6,9.9l4.6,7.7h17.9v98.8c0,23.1,3.4,45.2,9.6,65.3H121.8z"/>
		<path class="st5" d="M493.5,19.5h-95.1l-13.6,22.6l-4.5,7.4l-0.9,1.5h-5.2v-6.6v-6.7c0-0.8-0.1-1.7-0.2-2.5
			c-1.2-9.1-9-16.1-18.4-16.1h-13.2h-9H171.3c-7.9,107.8-26.9,241.7,58.8,319.8c-14.6,5.3-26.4,48.9,5.7,70c1.3,0.8,2.6,1.6,4,2.4
			c0,15,0,16,0,26c-42.6,0-92.8-3.5-93,34.9c30.6,13.6,64.4,21.1,100,21.1c45.3,0,87.7-12.2,124.2-33.5
			c-3.4-15.2-16.9-26.6-33.2-26.6h-64.4v-25.7v-2.9c11.4-8.3,18.9-21.7,18.9-36.9c0-11.7-4.4-22.3-11.7-30.4
			c32.2-11.9,59.3-40.4,76-78.3h15.1c29.7,0,57.6-15.9,79.5-45c2.8-3.8,5.6-7.7,8.2-11.9c7.6-12.1,14-25.6,19.2-40.1
			c9.7-27.4,14.9-58.3,14.9-90.5V19.5z M285.7,191.9l9.2,53.6l-48.2-25.3l-48.2,25.3l9.2-53.6l-39-38l53.8-7.8l24.1-48.8l24.1,48.8
			l53.8,7.8L285.7,191.9z M471.1,71.6c0,20.5-2.3,40.5-6.6,59.1c-3.7,15.8-8.8,30.6-15.3,44c-2.7,5.6-5.7,11-8.9,16
			c-18.8,30-43.2,46.5-68.7,46.5h-7c6.2-20.1,9.6-42.2,9.6-65.3V73.1h17.9l4.6-7.7l6-9.9l8.4-14h60V71.6z"/>
		<polygon class="st4" points="246.8,97.4 222.7,146.1 168.8,154 207.8,191.9 198.6,245.6 246.8,220.2 294.9,245.6 285.7,191.9 
			324.7,154 270.8,146.1 		"/>
	</g>
</g>
</svg>
